<svg xmlns="http://www.w3.org/2000/svg" xmlns:xlink="http://www.w3.org/1999/xlink" width="64" zoomAndPan="magnify" viewBox="0 0 48 48" height="64" preserveAspectRatio="xMidYMid meet" version="1.0"><defs><g/><clipPath id="c13f97024d"><path d="M 0.488281 0 L 47.507812 0 L 47.507812 47.019531 L 0.488281 47.019531 Z M 0.488281 0 " clip-rule="nonzero"/></clipPath></defs><g clip-path="url(#c13f97024d)"><path fill="#ffffff" d="M 0.488281 0 L 47.511719 0 L 47.511719 54.367188 L 0.488281 54.367188 Z M 0.488281 0 " fill-opacity="1" fill-rule="nonzero"/><path fill="#ffffff" d="M 0.488281 0 L 47.511719 0 L 47.511719 47.019531 L 0.488281 47.019531 Z M 0.488281 0 " fill-opacity="1" fill-rule="nonzero"/><path fill="#f4f4f4" d="M 0.488281 0 L 47.511719 0 L 47.511719 47.019531 L 0.488281 47.019531 Z M 0.488281 0 " fill-opacity="1" fill-rule="nonzero"/></g><g fill="#ff1616" fill-opacity="1"><g transform="translate(19.531867, 33.909578)"><g><path d="M 12.246094 0.292969 C 15.191406 0.292969 18.574219 -1.226562 20.265625 -3.585938 L 20.265625 -9.070312 L 16.445312 -9.070312 L 16.445312 -8.71875 C 17.699219 -8.398438 17.933594 -7.699219 17.933594 -5.890625 L 17.960938 -2.914062 C 17.234375 -1.457031 15.339844 -0.292969 13.152344 -0.292969 C 7.261719 -0.292969 3.820312 -6.328125 3.878906 -11.839844 C 3.9375 -17.203125 7.085938 -20.089844 11.285156 -20.089844 C 14.695312 -20.089844 17.378906 -18.109375 18.457031 -15.601562 L 18.75 -15.660156 L 18.632812 -19.101562 C 17.496094 -19.859375 14.726562 -20.617188 12.128906 -20.617188 C 5.890625 -20.617188 1.515625 -15.921875 1.515625 -10.058594 C 1.515625 -3.789062 5.746094 0.292969 12.246094 0.292969 Z M 12.246094 0.292969 "/></g></g></g><g fill="#5271ff" fill-opacity="1"><g transform="translate(5.466518, 35.052011)"><g><path d="M 1.757812 0 L 10.785156 0 C 18.367188 0 23.257812 -5.238281 23.222656 -12.507812 C 23.191406 -18.089844 19.46875 -24.121094 9.992188 -24.121094 L 1.757812 -24.121094 L 1.757812 -23.671875 C 2.792969 -23.363281 3.136719 -22.570312 3.136719 -19.742188 L 3.136719 -4.375 C 3.136719 -1.550781 2.792969 -0.757812 1.757812 -0.449219 Z M 5.960938 -3.03125 L 5.960938 -23.601562 L 8.304688 -23.601562 C 15.988281 -23.601562 20.089844 -18.019531 20.089844 -11.128906 C 20.089844 -3.929688 16.746094 -0.515625 10.714844 -0.515625 L 8.199219 -0.515625 C 6.304688 -0.515625 5.960938 -1.414062 5.960938 -3.03125 Z M 5.960938 -3.03125 "/></g></g></g><path fill="#f4f4f4" d="M 7.121094 20.96875 L 45.308594 20.96875 L 45.308594 25.675781 L 7.121094 25.675781 L 7.121094 20.96875 " fill-opacity="1" fill-rule="nonzero"/><g fill="#2b2b2b" fill-opacity="1"><g transform="translate(8.704095, 24.169535)"><g><path d="M 0.167969 0 L 1.035156 0 C 1.761719 0 2.234375 -0.503906 2.230469 -1.199219 C 2.226562 -1.738281 1.867188 -2.316406 0.960938 -2.316406 L 0.167969 -2.316406 L 0.167969 -2.273438 C 0.269531 -2.242188 0.300781 -2.167969 0.300781 -1.894531 L 0.300781 -0.421875 C 0.300781 -0.148438 0.269531 -0.0742188 0.167969 -0.0429688 Z M 0.570312 -0.292969 L 0.570312 -2.265625 L 0.796875 -2.265625 C 1.535156 -2.265625 1.929688 -1.730469 1.929688 -1.066406 C 1.929688 -0.378906 1.605469 -0.0507812 1.027344 -0.0507812 L 0.789062 -0.0507812 C 0.605469 -0.0507812 0.570312 -0.136719 0.570312 -0.292969 Z M 0.570312 -0.292969 "/></g></g></g><g fill="#2b2b2b" fill-opacity="1"><g transform="translate(11.620315, 24.169535)"><g><path d="M 0.167969 0 L 0.703125 0 L 0.703125 -0.0429688 C 0.601562 -0.0742188 0.570312 -0.148438 0.570312 -0.421875 L 0.570312 -1.894531 C 0.570312 -2.167969 0.601562 -2.242188 0.703125 -2.273438 L 0.703125 -2.316406 L 0.167969 -2.316406 L 0.167969 -2.273438 C 0.269531 -2.242188 0.300781 -2.167969 0.300781 -1.894531 L 0.300781 -0.421875 C 0.300781 -0.148438 0.269531 -0.0742188 0.167969 -0.0429688 Z M 0.167969 0 "/></g></g></g><g fill="#2b2b2b" fill-opacity="1"><g transform="translate(13.012414, 24.169535)"><g><path d="M 0.941406 0.03125 C 1.332031 0.03125 1.714844 -0.21875 1.714844 -0.632812 C 1.714844 -1.003906 1.371094 -1.152344 1.003906 -1.296875 C 0.722656 -1.414062 0.382812 -1.539062 0.382812 -1.847656 C 0.382812 -2.128906 0.613281 -2.285156 0.878906 -2.285156 C 1.257812 -2.285156 1.488281 -2.082031 1.609375 -1.792969 L 1.644531 -1.800781 L 1.628906 -2.1875 C 1.5 -2.253906 1.285156 -2.339844 0.984375 -2.339844 C 0.5 -2.339844 0.179688 -2.09375 0.179688 -1.707031 C 0.179688 -1.355469 0.425781 -1.21875 0.816406 -1.0625 C 1.09375 -0.949219 1.5 -0.796875 1.5 -0.464844 C 1.5 -0.199219 1.273438 -0.0273438 1.007812 -0.0273438 C 0.550781 -0.0273438 0.296875 -0.320312 0.167969 -0.667969 L 0.132812 -0.660156 L 0.148438 -0.203125 C 0.304688 -0.0898438 0.59375 0.03125 0.941406 0.03125 Z M 0.941406 0.03125 "/></g></g></g><g fill="#2b2b2b" fill-opacity="1"><g transform="translate(15.353369, 24.169535)"><g><path d="M 1.914062 0.0273438 L 1.957031 0.0273438 L 1.957031 -1.894531 C 1.957031 -2.167969 1.988281 -2.242188 2.089844 -2.273438 L 2.089844 -2.316406 L 1.671875 -2.316406 L 1.671875 -2.273438 C 1.824219 -2.234375 1.902344 -2.140625 1.902344 -1.761719 L 1.902344 -0.441406 L 0.457031 -2.316406 L 0.132812 -2.316406 L 0.132812 -2.273438 C 0.265625 -2.242188 0.304688 -2.167969 0.304688 -1.894531 L 0.304688 -0.421875 C 0.304688 -0.148438 0.269531 -0.0742188 0.171875 -0.0429688 L 0.171875 0 L 0.585938 0 L 0.585938 -0.0429688 C 0.4375 -0.0820312 0.355469 -0.175781 0.355469 -0.550781 L 0.355469 -2 Z M 1.914062 0.0273438 "/></g></g></g><g fill="#2b2b2b" fill-opacity="1"><g transform="translate(18.094365, 24.169535)"><g><path d="M 0.167969 0 L 1.800781 0 L 1.824219 -0.441406 L 1.789062 -0.445312 C 1.671875 -0.140625 1.46875 -0.0507812 1.152344 -0.0507812 L 0.722656 -0.0507812 C 0.625 -0.0507812 0.570312 -0.101562 0.570312 -0.199219 L 0.570312 -1.214844 L 0.996094 -1.214844 C 1.371094 -1.214844 1.46875 -1.136719 1.507812 -0.988281 L 1.546875 -0.988281 L 1.546875 -1.488281 L 1.507812 -1.488281 C 1.46875 -1.339844 1.371094 -1.261719 0.996094 -1.261719 L 0.570312 -1.261719 L 0.570312 -2.265625 L 1.058594 -2.265625 C 1.394531 -2.265625 1.589844 -2.167969 1.707031 -1.875 L 1.742188 -1.886719 L 1.707031 -2.316406 L 0.167969 -2.316406 L 0.167969 -2.273438 C 0.269531 -2.242188 0.300781 -2.167969 0.300781 -1.894531 L 0.300781 -0.421875 C 0.300781 -0.148438 0.269531 -0.0742188 0.167969 -0.0429688 Z M 0.167969 0 "/></g></g></g><g fill="#2b2b2b" fill-opacity="1"><g transform="translate(20.560953, 24.169535)"><g><path d="M 0.625 0 L 1.164062 0 L 1.164062 -0.0429688 C 1.0625 -0.0742188 1.03125 -0.148438 1.03125 -0.421875 L 1.03125 -1.046875 L 1.539062 -1.949219 C 1.671875 -2.183594 1.773438 -2.242188 1.863281 -2.273438 L 1.863281 -2.316406 L 1.46875 -2.316406 L 1.46875 -2.273438 C 1.59375 -2.25 1.589844 -2.148438 1.476562 -1.949219 L 1.015625 -1.128906 L 0.554688 -1.949219 C 0.421875 -2.183594 0.382812 -2.242188 0.484375 -2.273438 L 0.484375 -2.316406 L -0.0390625 -2.316406 L -0.0390625 -2.273438 C 0.03125 -2.242188 0.125 -2.183594 0.253906 -1.949219 L 0.753906 -1.042969 L 0.753906 -0.421875 C 0.757812 -0.148438 0.722656 -0.0742188 0.625 -0.0429688 Z M 0.625 0 "/></g></g></g><g fill="#2b2b2b" fill-opacity="1"><g transform="translate(22.898603, 24.169535)"><g/></g></g><g fill="#2b2b2b" fill-opacity="1"><g transform="translate(24.112171, 24.169535)"><g><path d="M 1.390625 0.03125 C 1.722656 0.03125 2.105469 -0.140625 2.296875 -0.40625 L 2.296875 -1.027344 L 1.867188 -1.027344 L 1.867188 -0.988281 C 2.007812 -0.953125 2.035156 -0.875 2.035156 -0.667969 L 2.039062 -0.332031 C 1.953125 -0.164062 1.738281 -0.03125 1.492188 -0.03125 C 0.824219 -0.03125 0.433594 -0.71875 0.441406 -1.34375 C 0.445312 -1.953125 0.804688 -2.277344 1.28125 -2.277344 C 1.667969 -2.277344 1.972656 -2.054688 2.09375 -1.769531 L 2.125 -1.777344 L 2.113281 -2.167969 C 1.984375 -2.253906 1.671875 -2.339844 1.375 -2.339844 C 0.667969 -2.339844 0.171875 -1.804688 0.171875 -1.140625 C 0.171875 -0.429688 0.652344 0.03125 1.390625 0.03125 Z M 1.390625 0.03125 "/></g></g></g><g fill="#2b2b2b" fill-opacity="1"><g transform="translate(27.084596, 24.169535)"><g><path d="M 1.851562 0.0234375 C 1.917969 0.0234375 2.003906 0.015625 2.054688 0 L 2.054688 -0.0390625 C 2.039062 -0.0351562 2.019531 -0.0351562 2 -0.0351562 C 1.886719 -0.0351562 1.824219 -0.144531 1.664062 -0.542969 C 1.503906 -0.949219 1.441406 -1.152344 1.035156 -1.203125 C 1.464844 -1.253906 1.691406 -1.488281 1.691406 -1.800781 C 1.691406 -2.09375 1.492188 -2.316406 0.820312 -2.316406 L 0.167969 -2.316406 L 0.167969 -2.273438 C 0.269531 -2.242188 0.300781 -2.167969 0.300781 -1.894531 L 0.300781 -0.421875 C 0.300781 -0.148438 0.269531 -0.0742188 0.167969 -0.0429688 L 0.167969 0 L 0.703125 0 L 0.703125 -0.0429688 C 0.601562 -0.0742188 0.570312 -0.148438 0.570312 -0.421875 L 0.570312 -1.195312 L 0.785156 -1.195312 C 1.179688 -1.195312 1.207031 -0.960938 1.398438 -0.507812 C 1.542969 -0.160156 1.597656 0.0234375 1.851562 0.0234375 Z M 0.570312 -1.242188 L 0.570312 -2.257812 C 0.625 -2.261719 0.679688 -2.265625 0.726562 -2.265625 C 1.21875 -2.265625 1.410156 -2.015625 1.410156 -1.722656 C 1.410156 -1.441406 1.230469 -1.242188 0.851562 -1.242188 Z M 0.570312 -1.242188 "/></g></g></g><g fill="#2b2b2b" fill-opacity="1"><g transform="translate(29.627225, 24.169535)"><g><path d="M -0.0546875 0 L 0.316406 0 L 0.316406 -0.0429688 C 0.203125 -0.0664062 0.191406 -0.175781 0.277344 -0.390625 L 0.472656 -0.875 L 1.40625 -0.875 L 1.605469 -0.386719 C 1.714844 -0.140625 1.738281 -0.0742188 1.636719 -0.0429688 L 1.636719 0 L 2.148438 0 L 2.148438 -0.0429688 C 2.082031 -0.0742188 2 -0.140625 1.898438 -0.386719 L 1.085938 -2.339844 L 0.835938 -2.230469 L 0.867188 -2.160156 C 0.894531 -2.105469 0.894531 -2.0625 0.875 -2.003906 L 0.222656 -0.390625 C 0.117188 -0.140625 0.0351562 -0.0742188 -0.0546875 -0.0429688 Z M 0.492188 -0.921875 L 0.933594 -2.011719 L 1.386719 -0.921875 Z M 0.492188 -0.921875 "/></g></g></g><g fill="#2b2b2b" fill-opacity="1"><g transform="translate(32.265732, 24.169535)"><g><path d="M 0.167969 0 L 0.703125 0 L 0.703125 -0.0429688 C 0.601562 -0.0742188 0.570312 -0.148438 0.570312 -0.421875 L 0.570312 -0.917969 L 0.808594 -0.917969 C 1.421875 -0.917969 1.742188 -1.222656 1.742188 -1.664062 C 1.742188 -1.984375 1.523438 -2.316406 0.839844 -2.316406 L 0.167969 -2.316406 L 0.167969 -2.273438 C 0.269531 -2.242188 0.300781 -2.167969 0.300781 -1.894531 L 0.300781 -0.421875 C 0.300781 -0.148438 0.269531 -0.0742188 0.167969 -0.0429688 Z M 0.570312 -0.964844 L 0.570312 -2.257812 C 0.613281 -2.261719 0.664062 -2.265625 0.710938 -2.265625 C 1.242188 -2.265625 1.453125 -1.941406 1.453125 -1.585938 C 1.453125 -1.199219 1.222656 -0.964844 0.800781 -0.964844 Z M 0.570312 -0.964844 "/></g></g></g><g fill="#2b2b2b" fill-opacity="1"><g transform="translate(34.609992, 24.169535)"><g><path d="M 0.167969 0 L 0.703125 0 L 0.703125 -0.0429688 C 0.601562 -0.0742188 0.570312 -0.148438 0.570312 -0.421875 L 0.570312 -1.199219 L 1.832031 -1.199219 L 1.832031 -0.421875 C 1.832031 -0.148438 1.800781 -0.0742188 1.699219 -0.0429688 L 1.699219 0 L 2.234375 0 L 2.234375 -0.0429688 C 2.132812 -0.0742188 2.105469 -0.148438 2.105469 -0.421875 L 2.105469 -1.894531 C 2.105469 -2.167969 2.132812 -2.242188 2.234375 -2.273438 L 2.234375 -2.316406 L 1.699219 -2.316406 L 1.699219 -2.273438 C 1.800781 -2.242188 1.832031 -2.167969 1.832031 -1.894531 L 1.832031 -1.253906 L 0.570312 -1.253906 L 0.570312 -1.894531 C 0.570312 -2.167969 0.601562 -2.242188 0.703125 -2.273438 L 0.703125 -2.316406 L 0.167969 -2.316406 L 0.167969 -2.273438 C 0.269531 -2.242188 0.300781 -2.167969 0.300781 -1.894531 L 0.300781 -0.421875 C 0.300781 -0.148438 0.269531 -0.0742188 0.167969 -0.0429688 Z M 0.167969 0 "/></g></g></g><g fill="#2b2b2b" fill-opacity="1"><g transform="translate(37.529519, 24.169535)"><g><path d="M 0.167969 0 L 0.703125 0 L 0.703125 -0.0429688 C 0.601562 -0.0742188 0.570312 -0.148438 0.570312 -0.421875 L 0.570312 -1.894531 C 0.570312 -2.167969 0.601562 -2.242188 0.703125 -2.273438 L 0.703125 -2.316406 L 0.167969 -2.316406 L 0.167969 -2.273438 C 0.269531 -2.242188 0.300781 -2.167969 0.300781 -1.894531 L 0.300781 -0.421875 C 0.300781 -0.148438 0.269531 -0.0742188 0.167969 -0.0429688 Z M 0.167969 0 "/></g></g></g><g fill="#2b2b2b" fill-opacity="1"><g transform="translate(38.921618, 24.169535)"><g><path d="M 1.417969 0.03125 C 1.789062 0.03125 2.105469 -0.0585938 2.257812 -0.144531 L 2.3125 -0.574219 L 2.277344 -0.578125 C 2.148438 -0.222656 1.867188 -0.03125 1.511719 -0.03125 C 0.824219 -0.03125 0.445312 -0.628906 0.449219 -1.25 C 0.449219 -1.925781 0.855469 -2.277344 1.382812 -2.277344 C 1.777344 -2.277344 2.089844 -2.074219 2.21875 -1.773438 L 2.253906 -1.78125 L 2.238281 -2.171875 C 2.109375 -2.253906 1.78125 -2.339844 1.496094 -2.339844 C 0.71875 -2.339844 0.171875 -1.816406 0.171875 -1.109375 C 0.171875 -0.390625 0.65625 0.03125 1.417969 0.03125 Z M 1.417969 0.03125 "/></g></g></g><g fill="#2b2b2b" fill-opacity="1"><g transform="translate(41.890736, 24.169535)"><g><path d="M 0.941406 0.03125 C 1.332031 0.03125 1.714844 -0.21875 1.714844 -0.632812 C 1.714844 -1.003906 1.371094 -1.152344 1.003906 -1.296875 C 0.722656 -1.414062 0.382812 -1.539062 0.382812 -1.847656 C 0.382812 -2.128906 0.613281 -2.285156 0.878906 -2.285156 C 1.257812 -2.285156 1.488281 -2.082031 1.609375 -1.792969 L 1.644531 -1.800781 L 1.628906 -2.1875 C 1.5 -2.253906 1.285156 -2.339844 0.984375 -2.339844 C 0.5 -2.339844 0.179688 -2.09375 0.179688 -1.707031 C 0.179688 -1.355469 0.425781 -1.21875 0.816406 -1.0625 C 1.09375 -0.949219 1.5 -0.796875 1.5 -0.464844 C 1.5 -0.199219 1.273438 -0.0273438 1.007812 -0.0273438 C 0.550781 -0.0273438 0.296875 -0.320312 0.167969 -0.667969 L 0.132812 -0.660156 L 0.148438 -0.203125 C 0.304688 -0.0898438 0.59375 0.03125 0.941406 0.03125 Z M 0.941406 0.03125 "/></g></g></g></svg>