<svg xmlns="http://www.w3.org/2000/svg" xmlns:xlink="http://www.w3.org/1999/xlink" width="190" zoomAndPan="magnify" viewBox="0 0 142.5 48" height="64" preserveAspectRatio="xMidYMid meet" version="1.0"><defs><g/><clipPath id="fb6bd14be2"><path d="M 1.210938 16 L 74 16 L 74 26 L 1.210938 26 Z M 1.210938 16 " clip-rule="nonzero"/></clipPath></defs><g fill="#eb5e0e" fill-opacity="1"><g transform="translate(18.289583, 39.883144)"><g><path d="M 18.609375 0.433594 C 22.195312 0.433594 27.503906 -1.339844 30.746094 -5.570312 L 30.746094 -13.515625 L 24.050781 -13.515625 L 24.050781 -12.910156 C 25.90625 -12.394531 26.296875 -11.183594 26.296875 -7.816406 L 26.296875 -3.886719 C 25.21875 -1.726562 22.757812 -0.605469 20.035156 -0.605469 C 11.746094 -0.605469 6.777344 -9.929688 6.867188 -18.09375 C 6.953125 -25.90625 11.3125 -29.707031 16.96875 -29.707031 C 21.289062 -29.707031 25.820312 -27.03125 27.59375 -22.582031 L 28.109375 -22.710938 L 27.9375 -28.414062 C 25.691406 -29.921875 21.246094 -30.527344 18.566406 -30.527344 C 8.851562 -30.527344 2.332031 -23.53125 2.332031 -15.242188 C 2.332031 -5.785156 8.679688 0.433594 18.609375 0.433594 Z M 18.609375 0.433594 "/></g></g></g><g fill="#38b6ff" fill-opacity="1"><g transform="translate(1.015119, 39.201177)"><g><path d="M 2.363281 0 L 16.046875 0 C 27.117188 0 34.261719 -7.394531 34.210938 -18.3125 C 34.160156 -25.707031 29.429688 -35.214844 14.941406 -35.214844 L 2.363281 -35.214844 L 2.363281 -34.511719 C 4.023438 -33.957031 4.375 -32.449219 4.375 -28.828125 L 4.375 -6.390625 C 4.375 -2.765625 4.023438 -1.257812 2.363281 -0.703125 Z M 9.710938 -4.476562 L 9.710938 -34.410156 L 11.722656 -34.410156 C 22.941406 -34.410156 28.273438 -26.160156 28.273438 -15.847656 C 28.273438 -5.082031 23.796875 -0.804688 15.695312 -0.804688 L 12.980469 -0.804688 C 10.210938 -0.804688 9.710938 -2.113281 9.710938 -4.476562 Z M 9.710938 -4.476562 "/></g></g></g><g clip-path="url(#fb6bd14be2)"><path fill="#f4f4f4" d="M 1.109375 16.367188 L 73.855469 16.367188 L 73.855469 25.679688 L 1.109375 25.679688 L 1.109375 16.367188 " fill-opacity="1" fill-rule="nonzero"/></g><g fill="#2b2b2b" fill-opacity="1"><g transform="translate(4.131214, 22.85529)"><g><path d="M 0.320312 0 L 1.964844 0 C 3.347656 0 4.238281 -0.953125 4.230469 -2.277344 C 4.226562 -3.296875 3.546875 -4.394531 1.820312 -4.394531 L 0.320312 -4.394531 L 0.320312 -4.3125 C 0.507812 -4.257812 0.570312 -4.113281 0.570312 -3.597656 L 0.570312 -0.796875 C 0.570312 -0.28125 0.507812 -0.136719 0.320312 -0.0820312 Z M 1.085938 -0.550781 L 1.085938 -4.300781 L 1.511719 -4.300781 C 2.914062 -4.300781 3.660156 -3.28125 3.660156 -2.027344 C 3.660156 -0.714844 3.050781 -0.09375 1.953125 -0.09375 L 1.492188 -0.09375 C 1.148438 -0.09375 1.085938 -0.257812 1.085938 -0.550781 Z M 1.085938 -0.550781 "/></g></g></g><g fill="#2b2b2b" fill-opacity="1"><g transform="translate(9.66803, 22.85529)"><g><path d="M 0.320312 0 L 1.335938 0 L 1.335938 -0.0820312 C 1.140625 -0.136719 1.085938 -0.28125 1.085938 -0.796875 L 1.085938 -3.597656 C 1.085938 -4.113281 1.140625 -4.257812 1.335938 -4.3125 L 1.335938 -4.394531 L 0.320312 -4.394531 L 0.320312 -4.3125 C 0.507812 -4.257812 0.570312 -4.113281 0.570312 -3.597656 L 0.570312 -0.796875 C 0.570312 -0.28125 0.507812 -0.136719 0.320312 -0.0820312 Z M 0.320312 0 "/></g></g></g><g fill="#2b2b2b" fill-opacity="1"><g transform="translate(12.310888, 22.85529)"><g><path d="M 1.789062 0.0625 C 2.53125 0.0625 3.257812 -0.414062 3.257812 -1.199219 C 3.257812 -1.910156 2.605469 -2.183594 1.910156 -2.460938 C 1.375 -2.679688 0.726562 -2.917969 0.726562 -3.507812 C 0.726562 -4.042969 1.160156 -4.335938 1.667969 -4.335938 C 2.386719 -4.335938 2.824219 -3.949219 3.058594 -3.402344 L 3.121094 -3.421875 L 3.09375 -4.148438 C 2.851562 -4.28125 2.441406 -4.4375 1.871094 -4.4375 C 0.949219 -4.4375 0.339844 -3.972656 0.339844 -3.238281 C 0.339844 -2.574219 0.808594 -2.308594 1.550781 -2.015625 C 2.078125 -1.800781 2.851562 -1.511719 2.851562 -0.886719 C 2.851562 -0.375 2.417969 -0.0507812 1.914062 -0.0507812 C 1.042969 -0.0507812 0.566406 -0.609375 0.320312 -1.269531 L 0.25 -1.253906 L 0.28125 -0.382812 C 0.578125 -0.167969 1.128906 0.0625 1.789062 0.0625 Z M 1.789062 0.0625 "/></g></g></g><g fill="#2b2b2b" fill-opacity="1"><g transform="translate(16.755408, 22.85529)"><g><path d="M 3.632812 0.0507812 L 3.714844 0.0507812 L 3.714844 -3.597656 C 3.714844 -4.113281 3.773438 -4.257812 3.96875 -4.3125 L 3.96875 -4.394531 L 3.175781 -4.394531 L 3.175781 -4.3125 C 3.457031 -4.238281 3.609375 -4.0625 3.609375 -3.347656 L 3.609375 -0.839844 L 0.867188 -4.394531 L 0.25 -4.394531 L 0.25 -4.3125 C 0.503906 -4.257812 0.578125 -4.113281 0.578125 -3.597656 L 0.578125 -0.796875 C 0.578125 -0.28125 0.515625 -0.136719 0.328125 -0.0820312 L 0.328125 0 L 1.109375 0 L 1.109375 -0.0820312 C 0.828125 -0.15625 0.679688 -0.332031 0.679688 -1.046875 L 0.679688 -3.796875 Z M 3.632812 0.0507812 "/></g></g></g><g fill="#2b2b2b" fill-opacity="1"><g transform="translate(21.959513, 22.85529)"><g><path d="M 0.320312 0 L 3.414062 0 L 3.464844 -0.835938 L 3.394531 -0.847656 C 3.171875 -0.261719 2.789062 -0.09375 2.183594 -0.09375 L 1.367188 -0.09375 C 1.1875 -0.09375 1.085938 -0.195312 1.085938 -0.375 L 1.085938 -2.304688 L 1.890625 -2.304688 C 2.605469 -2.304688 2.789062 -2.160156 2.863281 -1.878906 L 2.9375 -1.878906 L 2.9375 -2.824219 L 2.863281 -2.824219 C 2.789062 -2.542969 2.605469 -2.398438 1.890625 -2.398438 L 1.085938 -2.398438 L 1.085938 -4.300781 L 2.007812 -4.300781 C 2.648438 -4.300781 3.019531 -4.113281 3.238281 -3.558594 L 3.308594 -3.578125 L 3.238281 -4.394531 L 0.320312 -4.394531 L 0.320312 -4.3125 C 0.507812 -4.257812 0.570312 -4.113281 0.570312 -3.597656 L 0.570312 -0.796875 C 0.570312 -0.28125 0.507812 -0.136719 0.320312 -0.0820312 Z M 0.320312 0 "/></g></g></g><g fill="#2b2b2b" fill-opacity="1"><g transform="translate(26.642583, 22.85529)"><g><path d="M 1.1875 0 L 2.210938 0 L 2.210938 -0.0820312 C 2.015625 -0.136719 1.957031 -0.28125 1.957031 -0.796875 L 1.957031 -1.988281 L 2.917969 -3.699219 C 3.171875 -4.144531 3.363281 -4.257812 3.535156 -4.3125 L 3.535156 -4.394531 L 2.789062 -4.394531 L 2.789062 -4.3125 C 3.027344 -4.269531 3.019531 -4.082031 2.804688 -3.699219 L 1.925781 -2.140625 L 1.054688 -3.699219 C 0.804688 -4.144531 0.726562 -4.257812 0.917969 -4.3125 L 0.917969 -4.394531 L -0.0742188 -4.394531 L -0.0742188 -4.3125 C 0.0546875 -4.257812 0.238281 -4.144531 0.484375 -3.699219 L 1.429688 -1.976562 L 1.429688 -0.796875 C 1.4375 -0.28125 1.375 -0.136719 1.1875 -0.0820312 Z M 1.1875 0 "/></g></g></g><g fill="#2b2b2b" fill-opacity="1"><g transform="translate(31.080827, 22.85529)"><g/></g></g><g fill="#2b2b2b" fill-opacity="1"><g transform="translate(33.384692, 22.85529)"><g><path d="M 2.636719 0.0625 C 3.269531 0.0625 4 -0.261719 4.363281 -0.773438 L 4.363281 -1.953125 L 3.539062 -1.953125 L 3.539062 -1.878906 C 3.808594 -1.808594 3.859375 -1.65625 3.859375 -1.269531 L 3.867188 -0.628906 C 3.710938 -0.3125 3.300781 -0.0625 2.832031 -0.0625 C 1.5625 -0.0625 0.824219 -1.363281 0.835938 -2.546875 C 0.847656 -3.703125 1.527344 -4.324219 2.429688 -4.324219 C 3.164062 -4.324219 3.742188 -3.898438 3.972656 -3.359375 L 4.035156 -3.371094 L 4.011719 -4.113281 C 3.765625 -4.273438 3.171875 -4.4375 2.613281 -4.4375 C 1.269531 -4.4375 0.328125 -3.425781 0.328125 -2.164062 C 0.328125 -0.816406 1.238281 0.0625 2.636719 0.0625 Z M 2.636719 0.0625 "/></g></g></g><g fill="#2b2b2b" fill-opacity="1"><g transform="translate(39.028233, 22.85529)"><g><path d="M 3.515625 0.0429688 C 3.640625 0.0429688 3.804688 0.03125 3.898438 0 L 3.898438 -0.0742188 C 3.867188 -0.0703125 3.835938 -0.0703125 3.796875 -0.0703125 C 3.585938 -0.0703125 3.457031 -0.277344 3.15625 -1.03125 C 2.855469 -1.800781 2.738281 -2.183594 1.964844 -2.285156 C 2.78125 -2.378906 3.207031 -2.824219 3.207031 -3.414062 C 3.207031 -3.972656 2.832031 -4.394531 1.558594 -4.394531 L 0.320312 -4.394531 L 0.320312 -4.3125 C 0.515625 -4.257812 0.570312 -4.113281 0.570312 -3.597656 L 0.570312 -0.796875 C 0.570312 -0.28125 0.515625 -0.136719 0.320312 -0.0820312 L 0.320312 0 L 1.335938 0 L 1.335938 -0.0820312 C 1.140625 -0.136719 1.085938 -0.28125 1.085938 -0.796875 L 1.085938 -2.265625 L 1.488281 -2.265625 C 2.242188 -2.265625 2.292969 -1.828125 2.65625 -0.960938 C 2.929688 -0.308594 3.03125 0.0429688 3.515625 0.0429688 Z M 1.085938 -2.359375 L 1.085938 -4.289062 C 1.1875 -4.292969 1.285156 -4.300781 1.382812 -4.300781 C 2.308594 -4.300781 2.675781 -3.828125 2.675781 -3.269531 C 2.675781 -2.738281 2.335938 -2.359375 1.613281 -2.359375 Z M 1.085938 -2.359375 "/></g></g></g><g fill="#2b2b2b" fill-opacity="1"><g transform="translate(43.855688, 22.85529)"><g><path d="M -0.105469 0 L 0.601562 0 L 0.601562 -0.0820312 C 0.390625 -0.125 0.363281 -0.332031 0.527344 -0.742188 L 0.898438 -1.65625 L 2.667969 -1.65625 L 3.050781 -0.734375 C 3.25 -0.261719 3.300781 -0.136719 3.105469 -0.0820312 L 3.105469 0 L 4.082031 0 L 4.082031 -0.0820312 C 3.949219 -0.136719 3.796875 -0.261719 3.601562 -0.734375 L 2.058594 -4.445312 L 1.589844 -4.230469 L 1.644531 -4.097656 C 1.695312 -4 1.703125 -3.917969 1.65625 -3.804688 L 0.421875 -0.742188 C 0.226562 -0.261719 0.0703125 -0.136719 -0.105469 -0.0820312 Z M 0.933594 -1.75 L 1.769531 -3.816406 L 2.628906 -1.75 Z M 0.933594 -1.75 "/></g></g></g><g fill="#2b2b2b" fill-opacity="1"><g transform="translate(48.865188, 22.85529)"><g><path d="M 0.320312 0 L 1.335938 0 L 1.335938 -0.0820312 C 1.140625 -0.136719 1.085938 -0.28125 1.085938 -0.796875 L 1.085938 -1.738281 L 1.53125 -1.738281 C 2.699219 -1.738281 3.308594 -2.324219 3.308594 -3.15625 C 3.308594 -3.765625 2.894531 -4.394531 1.59375 -4.394531 L 0.320312 -4.394531 L 0.320312 -4.3125 C 0.507812 -4.257812 0.570312 -4.113281 0.570312 -3.597656 L 0.570312 -0.796875 C 0.570312 -0.28125 0.507812 -0.136719 0.320312 -0.0820312 Z M 1.085938 -1.832031 L 1.085938 -4.289062 C 1.160156 -4.292969 1.261719 -4.300781 1.351562 -4.300781 C 2.359375 -4.300781 2.753906 -3.683594 2.753906 -3.011719 C 2.753906 -2.273438 2.324219 -1.832031 1.519531 -1.832031 Z M 1.085938 -1.832031 "/></g></g></g><g fill="#2b2b2b" fill-opacity="1"><g transform="translate(53.31599, 22.85529)"><g><path d="M 0.320312 0 L 1.335938 0 L 1.335938 -0.0820312 C 1.140625 -0.136719 1.085938 -0.28125 1.085938 -0.796875 L 1.085938 -2.277344 L 3.476562 -2.277344 L 3.476562 -0.796875 C 3.476562 -0.28125 3.414062 -0.136719 3.226562 -0.0820312 L 3.226562 0 L 4.242188 0 L 4.242188 -0.0820312 C 4.050781 -0.136719 3.992188 -0.28125 3.992188 -0.796875 L 3.992188 -3.597656 C 3.992188 -4.113281 4.050781 -4.257812 4.242188 -4.3125 L 4.242188 -4.394531 L 3.226562 -4.394531 L 3.226562 -4.3125 C 3.414062 -4.257812 3.476562 -4.113281 3.476562 -3.597656 L 3.476562 -2.378906 L 1.085938 -2.378906 L 1.085938 -3.597656 C 1.085938 -4.113281 1.140625 -4.257812 1.335938 -4.3125 L 1.335938 -4.394531 L 0.320312 -4.394531 L 0.320312 -4.3125 C 0.507812 -4.257812 0.570312 -4.113281 0.570312 -3.597656 L 0.570312 -0.796875 C 0.570312 -0.28125 0.507812 -0.136719 0.320312 -0.0820312 Z M 0.320312 0 "/></g></g></g><g fill="#2b2b2b" fill-opacity="1"><g transform="translate(58.85909, 22.85529)"><g><path d="M 0.320312 0 L 1.335938 0 L 1.335938 -0.0820312 C 1.140625 -0.136719 1.085938 -0.28125 1.085938 -0.796875 L 1.085938 -3.597656 C 1.085938 -4.113281 1.140625 -4.257812 1.335938 -4.3125 L 1.335938 -4.394531 L 0.320312 -4.394531 L 0.320312 -4.3125 C 0.507812 -4.257812 0.570312 -4.113281 0.570312 -3.597656 L 0.570312 -0.796875 C 0.570312 -0.28125 0.507812 -0.136719 0.320312 -0.0820312 Z M 0.320312 0 "/></g></g></g><g fill="#2b2b2b" fill-opacity="1"><g transform="translate(61.501949, 22.85529)"><g><path d="M 2.691406 0.0625 C 3.394531 0.0625 3.992188 -0.113281 4.289062 -0.277344 L 4.386719 -1.09375 L 4.320312 -1.097656 C 4.074219 -0.421875 3.546875 -0.0625 2.867188 -0.0625 C 1.5625 -0.0625 0.847656 -1.191406 0.855469 -2.371094 C 0.855469 -3.652344 1.625 -4.320312 2.625 -4.320312 C 3.371094 -4.320312 3.96875 -3.9375 4.210938 -3.363281 L 4.273438 -3.378906 L 4.25 -4.125 C 4.003906 -4.28125 3.378906 -4.4375 2.835938 -4.4375 C 1.363281 -4.4375 0.328125 -3.445312 0.328125 -2.109375 C 0.328125 -0.742188 1.25 0.0625 2.691406 0.0625 Z M 2.691406 0.0625 "/></g></g></g><g fill="#2b2b2b" fill-opacity="1"><g transform="translate(67.139209, 22.85529)"><g><path d="M 1.789062 0.0625 C 2.53125 0.0625 3.257812 -0.414062 3.257812 -1.199219 C 3.257812 -1.910156 2.605469 -2.183594 1.910156 -2.460938 C 1.375 -2.679688 0.726562 -2.917969 0.726562 -3.507812 C 0.726562 -4.042969 1.160156 -4.335938 1.667969 -4.335938 C 2.386719 -4.335938 2.824219 -3.949219 3.058594 -3.402344 L 3.121094 -3.421875 L 3.09375 -4.148438 C 2.851562 -4.28125 2.441406 -4.4375 1.871094 -4.4375 C 0.949219 -4.4375 0.339844 -3.972656 0.339844 -3.238281 C 0.339844 -2.574219 0.808594 -2.308594 1.550781 -2.015625 C 2.078125 -1.800781 2.851562 -1.511719 2.851562 -0.886719 C 2.851562 -0.375 2.417969 -0.0507812 1.914062 -0.0507812 C 1.042969 -0.0507812 0.566406 -0.609375 0.320312 -1.269531 L 0.25 -1.253906 L 0.28125 -0.382812 C 0.578125 -0.167969 1.128906 0.0625 1.789062 0.0625 Z M 1.789062 0.0625 "/></g></g></g></svg>